<?xml version="1.0" encoding="UTF-8"?>
<svg id="Layer_4" data-name="Layer 4" xmlns="http://www.w3.org/2000/svg" viewBox="0 0 16 32.01">
  <defs>
    <style>
      .cls-1 {
        fill: #300b02;
      }
    </style>
  </defs>
  <path class="cls-1" d="M11.45,21.55c-.11-.05-.24-.08-.37-.1-.22-.06-.72,.08-.84,.36-.1,.2-.21,.38-.38,.5-.51,.38-.89,.86-1.27,1.36-.5,.67-1.44,.56-1.83-.18-.06-.12-.11-.26-.2-.36-.35-.39-.68-.8-1.07-1.15-.34-.3-.72-.62-1.27-.51-.04,.72,.4,1.16,.75,1.64,.38,.52,.78,1.03,1.16,1.55,.38,.52,.75,1.05,1.13,1.57,.57,.77,1.25,.82,1.76-.29,.03-.06,.04-.14,.07-.2,.12-.22,.25-.43,.38-.65,.13-.22,.31-.41,.4-.64,.24-.63,.62-1.13,1.13-1.56,.21-.18,.44-.34,.64-.54,.12-.12,.29-.34,.25-.44-.07-.16-.27-.29-.45-.37Z"/>
  <path class="cls-1" d="M15.51,14.98c-.83-.72-1.36-1.69-2.13-2.46-.23-.23-.43-.48-.78-.54-.22-.04-.42-.15-.41-.4,.04-.83-.51-1.36-.97-1.94-.23-.28-.51-.43-.88-.5-.5-.09-.98-.1-1.49-.03-1.03,.13-2.08,.09-3.12,.14-.18,0-.37,.03-.54,.1-.67,.28-1.44,1.52-1.39,2.26,.03,.51,.14,1.01,.17,1.52,.02,.35,.14,.61,.39,.86,.36,.36,.71,.73,1.03,1.13,.13,.17,.27,.49,.19,.62-.25,.46-.51,1-.92,1.25-.64,.39-.93,.85-.88,1.56,0,.04-.02,.09-.03,.14-.13,.75-.29,1.5,.22,2.19,.05,.07,.06,.18,.07,.27,0,.34,.25,.44,.49,.6,.79,.54,1.71,.37,2.56,.47,.79,.09,1.61-.09,2.41-.14,.09,0,.78-.12,.78-.12,.26-.13,.52-.26,.78-.4,.94-.5,1.61-1.16,1.58-2.32-.01-.48,.12-.61,.6-.69,.39-.07,.71-.21,.96-.5,.47-.54,.96-1.07,1.41-1.63,.5-.61,.51-.91-.09-1.43Zm-4.83,5.29c-1.28,.61-2.62,.86-4.03,.81-.25-.01-.56,.06-.75-.05-.28-.16-.51-.44-.73-.7-.08-.1-.11-.26-.12-.39-.04-.36-.35-.66-.16-1.07,.28-.59,.58-1.16,1.16-1.53,.08-.05,.16-.11,.24-.13,.52-.17,.9-.46,.92-1.07,.02-.66-.13-1.24-.66-1.68-.32-.26-.61-.57-.9-.86-.08-.08-.17-.18-.2-.28-.15-.55-.29-1.11-.41-1.67-.03-.12,.02-.29,.09-.4,.61-.91,1.68-1.25,2.61-.83,.03,.01,.05,.07,.12,.21-.36,.21-.73,.2-1.09,.25-.33,.05-.69,.14-.96,.32-.43,.29-.36,.69,.12,.89,.17,.07,.35,.11,.53,.16,.63,.18,.74,.31,.78,.97q.03,.56,.62,.69c.01-.26,.07-.51,.03-.74-.09-.54,.16-.9,.56-1.18,.29-.19,.61-.33,.9-.52,.14-.09,.3-.24,.32-.39,.04-.26-.19-.33-.41-.38-.15-.03-.29-.09-.55-.17,.37-.26,.69-.24,.99-.2,.66,.09,1.28,1.09,1.25,1.76-.05,.9-.59,1.41-1.3,1.74-.56,.26-1.01,.55-1.21,1.15-.02,.06-.09,.1-.17,.19-.22-.18-.43-.36-.69-.58-.26,.56-.17,1.04,.05,1.51,.04,.09,.18,.22,.24,.21,.44-.11,.73,.23,1.1,.34,.29,.09,.57,.21,.86,.27,.9,.18,1.32,.64,1.35,1.54,0,.21,.02,.42,.07,.61,.15,.6-.01,.94-.57,1.21Zm2.69-3.5c-.25,.23-.49,.47-.74,.72-.44-.18-.67-.54-.83-.91-.25-.57-.64-.91-1.28-1.04-.52-.1-.57-.41-.18-.77,.02-.02,.03-.04,.05-.05,.69-.37,1.2-.92,1.57-1.65,.17,.09,.34,.11,.39,.21,.52,.89,1.16,1.72,1.23,2.81,.02,.28,0,.48-.21,.67Z"/>
  <path class="cls-1" d="M3.32,10.82c.08,0,.19-.03,.3-.02,.41,.05,.47,.19,.27,.54-.13,.24-.22,.5-.33,.75-.2,.46-.38,.95-.62,1.39-.46,.81-.61,1.63-.31,2.54,.11,.32,.09,.69,.09,1.03,0,.56,.08,1.07,.41,1.58,.32,.49,.45,1.1,.66,1.65,.04,.11,.07,.22,.13,.31,.29,.46,.3,.46-.22,.85-.47-.27-.78-.71-.97-1.2-.34-.87-.96-1.52-1.54-2.2-.3-.35-.67-.64-.98-.98-.27-.3-.32-.69-.13-1.04,.26-.48,.59-.93,.88-1.4,.23-.37,.43-.75,.65-1.12,.23-.4,.45-.8,.7-1.19,.31-.49,.65-.97,1.01-1.48Z"/>
  <path class="cls-1" d="M9.47,8.39c-.11-.1-.34-.25-.51-.45-.16-.2-.27-.46-.57-.44-.36,.03-.77,0-1.07,.17-.57,.31-1.07,.73-1.59,1.11-.04,.03-.07,.06-.11,.09-.31,.21-.72,.27-.83,.08-.21-.33,.11-.48,.27-.69,.19-.25,.36-.52,.54-.78,.01-.02,.01-.05,.03-.06,.59-.49,.93-1.18,1.38-1.78,.46-.62,1.71-.24,1.96,.5,.07,.2,.22,.4,.39,.53,.42,.31,.61,.76,.75,1.22,.11,.38-.09,.57-.64,.5Z"/>
  <path class="cls-1" d="M5.51,19.04c.13-.35,.21-.61,.33-.86,.15-.32,.36-.59,.75-.66,.43-.08,.76-.34,1.01-.68,.16-.22,.35-.35,.59-.24,.75,.34,1.56,.6,2.09,1.3,.1,.13,.14,.35,.11,.51-.06,.32-.33,.45-.69,.31-.49-.18-.94-.1-1.42,.05-.72,.23-1.44,.47-2.21,.38-.15-.02-.31-.06-.55-.11Z"/>
</svg>