<?xml version="1.0" encoding="UTF-8"?>
<svg id="_3" data-name="3" xmlns="http://www.w3.org/2000/svg" viewBox="0 0 39.69 26.71">
  <defs>
    <style>
      .cls-1 {
        fill: #1e0500;
      }
    </style>
  </defs>
  <path class="cls-1" d="M17.13,6.03s.02-.07,0-.11c-.15-.53-.4-1.01-.71-1.46-.03-.04-.05-.07-.07-.11-.11-.16-.11-.29-.09-.47,0-.13,.02-.27,.03-.4,0-.23-.01-.45-.1-.66,.03-.02,.07-.03,.1-.05,.07-.03,.11-.08,.1-.16,0-.19-.02-.45,.09-.61,.11-.15,.05-.36,.04-.54-.01-.43,.01-.86,.07-1.29,.02-.15-.15-.22-.25-.16,0,0,0,0-.01,0-.29,.17-.53,.41-.77,.64-.26,.25-.53,.48-.82,.7-.32,.24-.65,.45-1,.65-.29,.11-.58,.18-.89,.21-.39,.04-.77-.04-1.16-.04-.19,0-.37,.05-.54,.1-.19,.06-.39,.09-.59,.14-.28,.08-.56,.22-.7,.49-.32-.04-.63,.07-.95,.07-.39,0-.79-.12-1.17-.2-.76-.16-1.5-.36-2.18-.74-.16-.09-.3,.15-.17,.26,.21,.19,.3,.4,.35,.67,.02,.08,.04,.17,.09,.23,.03,.03,.06,.06,.1,.08,0,0,.02,0,.03,0,0,.05,.03,.1,.09,.13,.05,.03,.1,.06,.15,.08-.03,.04-.06,.07-.1,.11-.1,.09,0,.23,.09,.26,.04,0,.07,.01,.1,.01,.02,.06,.04,.13,.09,.17,.07,.05,.14,.1,.21,.15,0,0,0,.01,0,.02-.06,.11,.04,.22,.15,.23,.38,0,.44,.57,.51,.84,.08,.3,.15,.59,.23,.89-.08,.14-.14,.28-.17,.43-.05,.31-.06,.63-.05,.94,.01,.32,.06,.64,.13,.95,.04,.17,.09,.33,.15,.49,.03,.08,.14,.23,.18,.34,.01,.04,.01,.08,0,.11-.03,.06-.01,.14,.04,.19,.33,.27,.42,.74,.75,1.02,.18,.16,.41,.26,.64,.31,.2,.1,.41,.18,.63,.25,.55,.19,1.17,.42,1.77,.41,.66-.01,1.07-.56,1.67-.72,.03,0,.05-.02,.06-.03,1.13-.25,2.15-.9,2.88-1.8,.37-.45,.66-.96,.86-1.5,.1-.28,.19-.58,.21-.88,.02-.24-.03-.45-.11-.66Zm-6.65,.88c-.22,.19-.51,.3-.81,.23-.01,0-.03-.01-.04-.02-.3-.09-.52-.38-.46-.7,0,0,0,0,0,0,.24-.1,.5-.16,.76-.15,.15,0,.33,.03,.44,.12,.05,.04,.09,.1,.12,.16,.04,.07,.07,.15,.09,.23-.04,.04-.07,.08-.1,.12Zm2.05,1.41s-.07-.03-.11-.04c-.06,0-.12,0-.18,0-.02,0-.04,0-.06,.02-.02,0-.04,.02-.05,.04-.02,.03-.04,.07-.04,.11,0,.02,0,.04,.02,.06,0,0,0,.02,0,.02,0,.03,.02,.07,.03,.1,.01,.04,.03,.08,.04,.12-.01,.02-.03,.03-.04,.05-.06,.07-.16,.24-.25,.22-.07-.01-.17-.09-.26-.16,0-.03,.01-.07,.02-.1,0-.04,.01-.07,.01-.11,0-.07-.05-.13-.11-.17,0,0,0,0,0,0-.03-.03-.07-.05-.11-.06-.04-.01-.09,0-.13,.01-.02,0-.04,.02-.06,.03,0,0-.01,.01-.02,.02-.02,0-.03,.01-.05,.02-.15-.12-.29-.25-.25-.27,.27-.1,.27-.45,.03-.58-.1-.06-.07-.23-.03-.31,.07-.16,.23-.28,.36-.39,.17-.14,.19-.45-.05-.54-.07-.03-.08-.15-.07-.27,0-.11,.02-.22,.03-.27,.01-.14,.03-.28,.06-.41,.03-.15,0-.2,.15-.21,.23-.02,.48,.03,.68,.15,.12,.07,.11,.16,.07,.25-.03,.06-.08,.12-.12,.17-.14,.17-.3,.33-.38,.54-.05,.13-.05,.25-.07,.38-.02,.11-.07,.2-.13,.29-.12,.21-.22,.44-.17,.68,.05,.27,.28,.48,.56,.37,.06-.02,.09-.05,.13-.09,.14-.03,.28-.04,.43-.01,.06,.01,.22,.03,.23,.1,.01,.06-.05,.15-.1,.23Zm1.88-2.83c0,.07-.02,.14-.04,.21-.04,.14-.09,.28-.17,.4-.17,.25-.44,.43-.74,.46-.28,.02-.57-.12-.7-.37,.06-.26,.3-.44,.54-.55,.32-.14,.66-.2,1.01-.19,.02,0,.09,.02,.11,0,0,0,0,0,0,0,0,0,0,.02,0,.03Z"/>
  <path class="cls-1" d="M39.67,15.89c.13-.93-.75-1.34-1.21-1.99,.01,0,.02,0,.03,0,.26,0,.32-.33,.12-.46-.17-.11-.31-.24-.43-.38,0,0,0,0,0,0,.16-.03,.22-.23,.15-.36-.19-.33-.37-.65-.56-.98,.01-.05,.01-.11-.02-.16,.08-.12,.07-.29-.03-.39,.1-.37-.31-.75-.51-1.01-.34-.44-.68-.88-1.02-1.33-.18-.24-.36-.47-.54-.71-.07-.09-.47-.51-.43-.6,.03-.08-.01-.18-.07-.24-.66-.7-1.42-1.29-2.27-1.74-.4-.22-.82-.4-1.25-.55-.09-.03-1.26-.36-1.19-.46,.1-.16-.04-.35-.21-.36-1.44-.08-2.88,0-4.3,.26-1.16,.21-2.46,.77-3.64,.45-.03-.09-.09-.17-.17-.23-.29-.21-.73-.16-1.06-.18-.38-.02-.76-.05-1.14-.07-.04-.02-.09-.02-.14,0-.04,0-.08,0-.13,0-.31-.02-.65-.08-.96,0-.07-.04-.13-.09-.19-.15-.07-.07-.21-.1-.29-.04-.48,.37-1.2,.26-1.77,.27,0,0,0,0,0,0,.31,.45,.56,.92,.71,1.46,.01,.04,0,.07,0,.11,.08,.21,.13,.43,.11,.66-.02,.3-.11,.59-.21,.88-.2,.55-.49,1.06-.86,1.5-.73,.89-1.75,1.55-2.88,1.8-.02,.01-.04,.03-.06,.03-.6,.16-1.01,.7-1.67,.72-.59,.01-1.21-.22-1.77-.41-.22-.07-.43-.15-.63-.25-.23-.05-.45-.15-.64-.31-.33-.28-.42-.75-.75-1.02-.05-.04-.07-.13-.04-.19,.01-.03,.01-.07,0-.11-.08,.28-.11,.57-.07,.86-.02,.03-.03,.07-.03,.13,.06,.85-.3,1.66-.17,2.52,.07,.5,.19,.99,.29,1.49,.08,.39,.17,.79,.36,1.14,0,0,0,0,0,0-.19,.5-.71,.78-1.13,1.05-.52,.33-1.02,.67-1.52,1.03-.92,.66-1.8,1.38-2.65,2.14-.02,0-.03-.01-.05-.01-.77-.09-1.54,.17-2.11,.69-.06,.06-.09,.17-.05,.25,0,0-.02,0-.03,.02-.03,.02-.06,.04-.09,.06-.05,.04-.1,.08-.15,.12-.08,.08-.15,.17-.2,.27-.11,.21-.15,.46-.09,.7,.06,.23,.21,.43,.41,.55,.21,.13,.45,.13,.69,.1,.23-.03,.43-.1,.66-.04,.26,.06,.48,.07,.73-.02,.28-.11,.57-.22,.85-.35,0,.12,.01,.25,.08,.36,.09,.15,.24,.25,.41,.28,.13,.44,.46,.78,.91,.93,.54,.19,1.13,.02,1.56-.34,.12-.1,.22-.21,.31-.33,.09-.12,.14-.29,.24-.4,.1-.12,.22-.08,.36-.07,.15,0,.29-.02,.44-.06,.15-.05,.3-.12,.46-.13,.18-.02,.36,0,.53,0,.2,0,.39-.05,.56-.13,.33,.44,.94,.51,1.46,.42,.35-.06,.71-.19,1.08-.15,.26,.03,.51,.14,.74,.26,.45,.22,.92,.52,1.44,.5,.51-.02,.85-.36,1.24-.6l-.02,.06c-.07,.19,.19,.4,.36,.27,.13-.1,.27-.18,.41-.24,0,0,0,.01-.01,.02-.1,.14,.04,.38,.21,.36,.04,0,.09,0,.13-.01,0,0,0,0,0,0-.03,.1,.02,.23,.12,.28,.31,.16,.58,.36,.82,.6-.03,.03-.06,.06-.07,.09-.66,.16-1.38,.47-1.48,1.22-.07,.53,.41,1.08,.95,.99,.48,.63,1.4,.62,2.08,.31,.32-.15,.62-.35,.92-.53,.46,.08,.92,.12,1.39,.13,.03,.03,.06,.05,.1,.07,.97,.28,1.98,.39,2.98,.3,.1,.02,.2,.04,.3,.05,.03,.08,.11,.15,.21,.14,1.13-.1,2.23-.34,3.31-.69,.06,.06,.14,.1,.23,.07,.82-.22,1.52-.67,2.25-1.07,.66-.36,1.36-.6,2.07-.82,0,.01,0,.03,0,.04-.04,.2,.17,.39,.36,.27,.3-.17,.6-.35,.89-.52,.04,0,.08,.01,.13,0,.6-.22,1.19-.49,1.76-.79,.08,.12,.28,.16,.38,.04,.59-.76,1.18-1.53,1.78-2.29,.12-.15,1.33-1.68,1.18-1.95,.13,.03,.27-.06,.3-.23,.07-.59,0-1.18-.19-1.73,0,0,0,0,0,0,.31-.3,.59-.66,.66-1.09Zm-13.37-2.99c-.07,.93-.18,1.12-.48,1.82-.1,.23-.26,.31-.39,.51-.02,.02-.03,.04-.05,.06-.01,.02-.01,.03-.02,.05s-.01,0-.02,.02c0,.02-.01,.06-.04,.08-.03,.02-.08,.05-.11,.06s.02,0,0,.04c-.02,.03-.01,.06-.09,.09s-.17,.11-.26,.17c-.08,.06-.14,.09-.26,.15-.12,.06-.3,.13-.45,.18-.57,.21-.92-.02-1.39-.34-.02-.02,.01,.08-.07,.02-.08-.06-.32-.11-.42-.05-.1,.05-.14,.03-.2,.07-.06,.04-.02,.07-.1,.09-.08,.02-.2,.06-.3,.07,0,0,.02,0-.01,0-.03,0-.14,0-.18,0,0,0,0,0-.01,0,0,0,0,0,0,0,0,0,0,0-.02,0-.02,0,.01,0-.04-.02-.05-.02-.17-.05-.27-.07,0,0,.12,.03-.04,0-.25-.06-.93-.28-1.23-.45-.3-.18-.54-.33-.74-.61-.05-.07-.09-.14-.12-.19s-.04-.1-.04-.15c0-.04,.01,0,0-.04,0-.04-.04-.13-.05-.18-.01-.05,.01-.07,.05-.09,0,0,0,0,0,0,0-.03,0-.03,0-.08s.07-.07,.1-.06c.04,.01,.04-.01,.07,.01s.11,.08,.14,.09c1.04,.29,1.68,.19,2.69,.08,0,0,0,0,.02,0,.02,0,.03-.02,.08-.03s.15,.01,.22,.02c.07,0,.23-.01,.29-.01,.06,0,0,0,.04,0s.16-.02,.21-.03c.05,0,.05-.01,.09-.01,0,0,0,0,0,0,0,0,0,0,0,0s.01,0,.02,0c0,0,0,0,.01,0,.1-.01,.28-.08,.34-.12,.06-.04,0-.02,.03-.05,.04-.03,.03,0,.09-.02,.06-.02,.2-.16,.23-.21,.03-.05,.02-.05,.04-.08s.03-.03,.05-.05c.02-.02,.02-.04,.03-.07,.01-.03,.02-.09,.02-.13,0-.04,.02-.04,.04-.06,.02-.02,.02-.1,.02-.12,0-.02,0,0,0-.01,0-.02,0-.02,0-.04,0,0,0,.02,0,0s-.02-.14-.03-.16-.03-.03-.03-.05c0-.02,0,0,0-.02,0,0,0,0,0,0,0,0,0,0,0-.03,0-.02,0-.03,0-.08,0-.05-.03-.19-.05-.24-.02-.05,.01-.04,.01-.07,0-.04-.02-.1-.04-.14-.17-.41-.2-.82-.51-1.19-.55-.65-1.32-1.21-2.06-1.65-.23-.14,.52-.12,.59-.09,0,0,.04,0,.05,.01,0,0,0,0,.01,0,.1,0,.28,.02,.36,.04s.02,.04,.05,.06c.03,.02,.07,0,.1,0,.03,0,0,0,.04,.02,.03,0,.12,.01,.17,.01,.05,0,.02,.05,.05,.06,.54,.12,1.1,.24,1.63,.43,.04,.01,.08,0,.1,.03,.01,.03,0,.01,0,.03,0,.01,0,0,.01,0,.02,0,0,0,.04,0s-.01,.05,.05,.06c.06,0,.18,.16,.19,.23s.1,.07,.13,.11c.02,.04,0,.05,0,.07,0,.02,0,0,.02,.02,.01,.01,.04,.05,.05,.06,0,.02,0,.02,0,.03,0,0,0,0,.01,0,.05,.03,0,.08-.02,.12,1.71,.06,1.65,.4,1.52,2.04Z"/>
</svg>