<?xml version="1.0" encoding="UTF-8"?>
<svg id="_3" data-name="3" xmlns="http://www.w3.org/2000/svg" viewBox="0 0 37.87 35.36">
  <defs>
    <style>
      .cls-1 {
        fill: #9d3816;
      }
    </style>
  </defs>
  <path class="cls-1" d="M11.7,14.97s.02-.07,0-.1c-.15-.53-.4-1-.71-1.45-.03-.04-.05-.07-.07-.11-.11-.15-.11-.29-.09-.47,0-.13,.02-.27,.03-.4,0-.23-.01-.45-.1-.65,.03-.02,.07-.03,.1-.05,.07-.03,.1-.08,.1-.16,0-.19-.02-.44,.09-.6,.1-.15,.05-.36,.04-.53-.01-.43,.01-.85,.07-1.28,.02-.15-.15-.22-.25-.16,0,0,0,0-.01,0-.29,.16-.52,.4-.76,.63-.26,.25-.53,.48-.82,.69-.32,.24-.65,.45-.99,.64-.28,.1-.58,.18-.88,.2-.39,.04-.76-.04-1.15-.04-.19,0-.36,.05-.54,.1-.19,.06-.39,.09-.58,.14-.28,.07-.55,.22-.69,.48-.32-.04-.62,.07-.94,.07-.38,0-.79-.12-1.16-.2-.75-.16-1.49-.36-2.16-.73-.16-.09-.3,.15-.17,.26,.21,.18,.3,.4,.35,.66,.02,.08,.04,.17,.09,.23,.03,.03,.06,.06,.1,.08,0,0,.02,0,.03,0,0,.05,.03,.1,.09,.13,.05,.03,.1,.05,.15,.08-.03,.04-.06,.07-.1,.11-.09,.09,0,.23,.09,.25,.03,0,.07,.01,.1,.01,.02,.06,.04,.13,.09,.17,.07,.05,.14,.1,.21,.15,0,0,0,.01,0,.02-.06,.11,.04,.22,.15,.22,.37,0,.44,.56,.51,.83,.08,.29,.15,.59,.23,.88-.08,.14-.14,.28-.17,.43-.05,.31-.06,.63-.05,.94,.01,.32,.06,.63,.13,.94,.04,.16,.09,.33,.15,.48,.03,.08,.14,.22,.17,.34,.01,.04-.02,.08,0,.11,.19,.39,.68,.66,.74,.7,2.24,1.92,4.12,.91,4.71,.75,.03,0,.05-.02,.06-.03,1.12-.25,2.14-.9,2.86-1.78,.36-.44,.66-.95,.85-1.49,.1-.28,.19-.57,.21-.87,.02-.23-.03-.45-.11-.66Zm-6.6,.87c-.22,.19-.51,.3-.81,.23-.01,0-.03-.01-.04-.02-.3-.09-.52-.38-.46-.7,0,0,0,0,0,0,.24-.1,.5-.16,.76-.15,.15,0,.32,.02,.44,.12,.05,.04,.09,.1,.12,.16,.04,.07,.06,.15,.09,.23-.04,.04-.07,.08-.1,.12Zm2.03,1.4s-.07-.03-.11-.04c-.06,0-.12,0-.18,0-.02,0-.04,0-.06,.02-.02,0-.04,.02-.05,.04-.02,.03-.04,.07-.04,.11,0,.02,0,.04,.02,.06,0,0,0,.02,0,.02,0,.03,.02,.07,.03,.1,.01,.04,.03,.08,.04,.12-.01,.02-.03,.03-.04,.05-.06,.07-.16,.23-.25,.22-.07-.01-.17-.08-.26-.16,0-.03,.01-.07,.02-.1,0-.04,.01-.07,.01-.11,0-.07-.05-.13-.11-.16,0,0,0,0,0,0-.03-.03-.07-.05-.11-.06-.04-.01-.09,0-.13,.01-.02,0-.04,.02-.05,.03,0,0-.01,.01-.02,.02-.02,0-.03,.01-.05,.02-.15-.12-.29-.25-.25-.27,.26-.1,.26-.45,.03-.58-.1-.06-.07-.22-.03-.31,.07-.16,.23-.28,.36-.39,.17-.14,.19-.44-.05-.54-.06-.03-.08-.15-.07-.27,0-.11,.02-.22,.03-.27,.01-.14,.03-.28,.06-.41,.03-.15,0-.2,.15-.21,.23-.02,.48,.03,.68,.15,.12,.07,.11,.16,.06,.25-.03,.06-.08,.12-.12,.17-.14,.17-.3,.33-.38,.54-.05,.13-.05,.24-.07,.38-.02,.11-.07,.2-.12,.29-.12,.21-.22,.43-.17,.68,.05,.27,.28,.47,.56,.37,.05-.02,.09-.05,.13-.09,.14-.03,.28-.04,.42-.01,.06,.01,.21,.03,.23,.1,.01,.06-.05,.15-.1,.23Zm1.87-2.81c0,.07-.02,.14-.04,.21-.04,.14-.09,.28-.17,.4-.17,.25-.43,.43-.73,.45-.28,.02-.56-.12-.7-.37,.06-.25,.3-.44,.53-.54,.31-.14,.66-.2,1-.19,.02,0,.09,.02,.11,0,0,0,0,0,0,0,0,0,0,.02,0,.03Z"/>
  <path class="cls-1" d="M37.85,30.62c-.13-1.58-.61-3.31-1.79-4.42-.64-.6-.84-1.88-1.12-2.69-.3-.86-.67-1.73-.89-2.62-.34-1.42-.77-2.93-1.71-4.1-.01-1.15,.31-2.29,.55-3.42,.1-.15,.2-.3,.25-.48,.03-.1-.02-.21-.1-.26,0-.03,.01-.06,.02-.09,.02-.04,.04-.08,.06-.13,.01-.02,.02-.04,.03-.06,.04-.01,.07-.03,.1-.06,.11-.13,.12-.3,.03-.44,0-.07-.04-.13-.09-.16,0,0,0,0,0,0,.16-1.07,.27-2.15,.37-3.24,.1-1.15,.24-2.33,.26-3.5,.05-.19,.09-.38,.14-.58,.03-.12-.03-.21-.11-.26,0-.12,.02-.24,.02-.36,0-.07-.04-.13-.09-.18,0-.06-.01-.12-.02-.18,0-.09,0-.18,0-.27,0-.07-.03-.12-.07-.16-.01-.06-.03-.12-.04-.18,0-.1,0-.21,0-.32,0-.1-.06-.17-.14-.21,0-.04,0-.07,0-.11,0-.1-.06-.17-.13-.21-.03-.08-.06-.17-.09-.25-.02-.08-.04-.15-.08-.22,0,0,0-.01,0-.02,0,0,0,0,0,0,0-.02-.01-.04-.02-.06-.02-.05-.06-.08-.09-.09l-.17-.37c-.08-.17-.24-.15-.35-.06-.08-.15-.16-.29-.25-.43-.07-.1-.16-.13-.25-.11-.03-.03-.06-.07-.09-.1-.07-.08-.18-.09-.27-.04-.01-.02-.03-.04-.04-.06-.11-.21-.35-.13-.43,.04-.12-.09-.29-.03-.36,.09-.19-.1-.47,.09-.33,.33,.01,.02,.02,.05,.04,.07-.11,.02-.21,.09-.2,.23,.03,.36,.09,.72,.17,1.07,0,0,0,.02,.01,.02,.01,.42,.09,.87,.11,1.24,.03,.71,.06,1.43,.05,2.14-.02,2.56-.45,5.25-2.06,7.32-.05,0-.09-.02-.15-.01-1.98,.22-3.97,.41-5.95,.64-.04-.16-.2-.23-.35-.16-.29,.13-.59,.24-.9,.31-.27,.03-.55,.07-.82,.11-.04-.07-.11-.11-.19-.1-.29,.03-.56,.12-.81,.27-.07,.02-.14,.03-.21,.05-.27,.08-.65,.34-.94,.35-.02-.01-.04-.03-.07-.04-.05-.02-.22-.03-.24-.06,0,0-.02-.17-.03-.19-.02-.06-.05-.13-.1-.17-.1-.09-.26-.09-.41-.07-.07-.09-.16-.15-.3-.14-.13,0-.26,.04-.39,.06-.21-.03-.42-.05-.64-.06-.02-.11-.1-.21-.23-.2-.54,.05-1.08,.11-1.62,.16-.03-.03-.05-.05-.09-.07-.26-.13-.6-.08-.88,.04-.12-.11-.34-.07-.4,.11,0,0,0,.01,0,.02-.07,0-.14,0-.21,.03-.03,.01-.13,.06-.18,.11-.02-.02-.05-.04-.07-.06-.2-.13-.49-.04-.72-.02-.25,.03-.5,.06-.75,.09-.01,0-.02,0-.03,0,0-.02-.01-.04-.03-.06-.02-.04-.06-.07-.1-.09,0,0,0,0,0,0,.03,2.28-.99,4.66-3.1,5.74-.84,.43-2.04,.82-3.1,.74,.21,.63,.38,1.27,.58,1.9,.44,1.38,1.2,2.73,1.35,4.19,.08,.81-.17,1.49-.4,2.25-.2,.67-.26,1.34-.38,2.03-.11,.63-.32,1.38-1.03,1.52-.61,.11-1.09-.06-1.67,.28-.24,.14-.35,.42-.34,.68,0,0,0,0,0,0-.16,.25-.09,.58,.17,.73,.21,.11,.48,.1,.71,.11,.26,.01,.52,.01,.78,0,.02,0,.05,0,.07-.02,.84,.06,1.64-.07,2.31-.7,1.03-.98,2.02-2.1,2.54-3.44,.28-.73,.39-1.55,1.35-1.51,.35,.01,.75,.15,1.07,.28,.45,.19,.5,.3,.66,.74,.3,.8,.57,1.62,.85,2.42,.23,.66,.87,2.16,.86,2.16-.58-.08-1.04,.48-.88,.94-.09,.12-.15,.27-.11,.42,.04,.15,.16,.26,.31,.31,.12,.04,.26,.05,.38,.05,.14,0,.29,0,.43,0,.22-.01,.44-.04,.66-.06,.25,.03,.49,.02,.75-.08,.5-.2,.76-.64,.8-1.17,.04-.71-.17-1.5-.27-2.2-.08-.59-.89-2.72-.09-3.02,.05-.02,1.49,.94,2.85,1.12,.08,.06,.15,.12,.22,.18,.14,.14,.34,.05,.39-.1,.09,.01,.19,.02,.28,.04,.34,.13,.66,.28,.96,.5,.2,.14,.38-.09,.36-.28v-.04s.02,0,.03,0c.08,.07,.16,.14,.23,.22,.13,.15,.35,.05,.41-.11,0,0,0,0,0-.01,.2,.03,.4,.06,.6,.12,.06,.02,.12,0,.18-.03,.08,.04,.16,.08,.25,.12,.1,.05,.23,.03,.31-.05,.49,.06,.94,.12,1.33,.17,1.16,.15,2.29-.43,3.18-1.27,.14-.14,.95-.85,1.12-.77,.06,.03,.04,1.24,.04,1.24,0,0,0,0,0,.02,0,.06,0,.12,0,.18,0,.03,0,.02,0,.03-.02,.12-.05,.25-.09,.37-.03,.1-.08,.21-.1,.26-.19,.43-.46,.82-.73,1.19-.17,.23-.39,.47-.53,.73-.17,.12-.32,.27-.4,.46-.1,.22-.13,.49,.05,.68,.12,.12,.28,.15,.44,.12,0,0,0,.02,.01,.03,.16,.2,.41,.27,.66,.23,.03,0,.06-.02,.09-.03,.17,.02,.34,.01,.5-.01,.54-.08,1-.37,1.42-.7,.78-.62,1.37-1.45,1.94-2.26,.5-.7,.93-1.49,.91-2.34,.02,0,.04,.02,.05,.02,.35,.12,.7,.22,1.06,.33,.32,.1,1.02,.23,1.23,.51,.44,.6,.08,1.87-.21,2.46-.02,.05-.04,.1-.05,.16-.15,.21-.27,.46-.11,.7,.1,.15,.23,.19,.37,.17,.03,.1,.1,.19,.19,.26,.16,.1,.37,.1,.53,.02,.02-.01,.04-.03,.06-.04,.15,.14,.35,.13,.51,.03,.14-.09,.25-.22,.32-.37,.12-.07,.23-.16,.33-.27,.56-.59,.6-1.45,.53-2.22Zm-13.45-6.55c-.13,.13-.28,.24-.44,.33-.01,.02-.03,.03-.05,.04,0,.01-.01,.03-.03,.04,0,0-.01,0-.02,.01,0,.03-.02,.05-.05,.06-.03,0-.07,.02-.11,.02,0,.01,0,.02,0,.03-.01,.04-.05,.06-.09,.05-.08-.01-.17,.04-.25,.06-.08,.02-.16,.03-.24,.04-.14,.02-.29,.02-.43,.02-.55,.08-1.11,.1-1.67,.08,0,.03-.03,.05-.07,.05-.16-.02-.33-.03-.49-.05-.06,0-.13-.02-.19-.04-.01,.03-.05,.06-.08,.05-.1-.02-.2-.04-.29-.07,0,0,0,0,0,0-.06,0-.12-.03-.18-.05,0,0,0,0,0,0,0,0,0,0,0,0,0,0-.01,0-.02,0-.01,0-.02-.01-.03-.02-.08-.03-.16-.05-.24-.08,0,0,0,0,0,0-.41-.11-.82-.27-1.19-.48-.24-.14-.56-.34-.72-.59-.04-.06-.08-.12-.12-.19-.02-.04-.05-.09-.04-.14,0,0,0-.02,.01-.02-.02-.06-.03-.12-.05-.17-.01-.04,.02-.08,.05-.08,0,0,0,0,0,0,0-.02,0-.05,0-.07,0-.06,.07-.09,.11-.06,.02-.01,.04-.01,.07,0,.05,.03,.09,.06,.14,.09,1.86,.56,1.83,.12,2.75,.09,0,0,.01,0,.02,0,.03-.01,.06-.03,.08-.04,.08-.02,.15,0,.22,.03,.1,0,.2,0,.3-.02,0,0,.02,0,.03,0,.07-.01,.15-.02,.22-.03,.03-.01,.05-.02,.08-.01,0,0,0,0,0,0,0,0,0,0,0,0,0,0,.01,0,.02,0,0,0,0,0,0,0,.12-.02,.25-.05,.36-.09,0-.01,.01-.03,.03-.03,.03-.02,.06-.02,.08,0,.11-.05,.21-.1,.3-.18,.02-.02,.03-.04,.05-.07,.01-.02,.04-.03,.06-.03,.02-.02,.03-.04,.04-.05,.02-.04,.04-.08,.05-.12,0-.03,.03-.05,.06-.05,.02-.04,.03-.08,.05-.12,0,0,0,0,0,0,0-.01,0-.03,.01-.04,0,0,0,0,0,0,0-.06,0-.12,0-.18-.02-.01-.03-.03-.02-.05,0,0,0-.01,0-.02h0s0-.02,0-.03c0-.02,0-.05,.01-.07,.01-.09,.02-.18,0-.27,0-.04,.02-.06,.04-.06,0-.05,0-.11,0-.16,0-.46-.08-.87-.39-1.21-.56-.61-1.84-1.35-2.57-1.7-.23-.11,.26-.18,.56-.11,.02,0,.04,0,.05,.01,0,0,0,0,0,0,.14,0,.28,0,.42,.04,.03,0,.04,.03,.05,.06,.05,0,.1,0,.16,0,.02,0,.03,0,.04,.02,.09,0,.17,.01,.26,.02,.04,0,.06,.03,.07,.06,.63,.13,1.45,.34,2.05,.66,.04-.01,.09,0,.11,.05,0,0,0,.01,0,.02,0,0,0,0,.01,0,.02,0,.03,0,.05,0,.03,0,.05,.03,.05,.06,.13,0,.23,.11,.3,.22,.06,.03,.12,.07,.16,.12,.01,.02,.02,.04,.02,.06,0,0,.01,.01,.02,.02,.02,.02,.05,.04,.06,.07,0,0,0,.02,0,.02,0,0,0,0,0,0,.03,.03,.02,.07,0,.09,.56,.78,.86,1.77,.84,2.73,0,.54-.14,1.1-.52,1.51Z"/>
</svg>